<svg width="632" height="34" viewBox="0 0 632 34" fill="none" xmlns="http://www.w3.org/2000/svg">
<path d="M2.34375 33.9062C1.61458 33.9062 1.04167 33.7109 0.625 33.3203C0.208333 32.9297 0 32.474 0 31.9531C0 31.4323 0.208333 30.9766 0.625 30.5859C1.04167 30.1953 1.61458 30 2.34375 30H9.60938C10.3385 30 10.9115 30.1953 11.3281 30.5859C11.7448 30.9766 11.9531 31.4323 11.9531 31.9531C11.9531 32.474 11.7448 32.9297 11.3281 33.3203C10.9115 33.7109 10.3385 33.9062 9.60938 33.9062H2.34375ZM2.34375 28.9062C1.61458 28.9062 1.04167 28.7109 0.625 28.3203C0.208333 27.9297 0 27.474 0 26.9531C0 26.4323 0.208333 25.9766 0.625 25.5859C1.04167 25.1953 1.61458 25 2.34375 25H9.60938C10.3385 25 10.9115 25.1953 11.3281 25.5859C11.7448 25.9766 11.9531 26.4323 11.9531 26.9531C11.9531 27.474 11.7448 27.9297 11.3281 28.3203C10.9115 28.7109 10.3385 28.9062 9.60938 28.9062H2.34375ZM2.34375 23.9062C1.61458 23.9062 1.04167 23.7109 0.625 23.3203C0.208333 22.9297 0 22.474 0 21.9531C0 21.4323 0.208333 20.9766 0.625 20.5859C1.04167 20.1953 1.61458 20 2.34375 20H24.6094C25.3385 20 25.9115 20.1953 26.3281 20.5859C26.7448 20.9766 26.9531 21.4323 26.9531 21.9531C26.9531 22.474 26.7448 22.9297 26.3281 23.3203C25.9115 23.7109 25.3385 23.9062 24.6094 23.9062H2.34375ZM2.34375 18.9062C1.61458 18.9062 1.04167 18.7109 0.625 18.3203C0.208333 17.9297 0 17.474 0 16.9531C0 16.4323 0.208333 15.9766 0.625 15.5859C1.04167 15.1953 1.61458 15 2.34375 15H9.60938C10.3385 15 10.9115 15.1953 11.3281 15.5859C11.7448 15.9766 11.9531 16.4323 11.9531 16.9531C11.9531 17.474 11.7448 17.9297 11.3281 18.3203C10.9115 18.7109 10.3385 18.9062 9.60938 18.9062H2.34375ZM22.3438 18.9062C21.6146 18.9062 21.0417 18.7109 20.625 18.3203C20.2083 17.9297 20 17.474 20 16.9531C20 16.4323 20.2083 15.9766 20.625 15.5859C21.0417 15.1953 21.6146 15 22.3438 15H29.6094C30.3385 15 30.9115 15.1953 31.3281 15.5859C31.7448 15.9766 31.9531 16.4323 31.9531 16.9531C31.9531 17.474 31.7448 17.9297 31.3281 18.3203C30.9115 18.7109 30.3385 18.9062 29.6094 18.9062H22.3438ZM2.34375 13.9062C1.61458 13.9062 1.04167 13.7109 0.625 13.3203C0.208333 12.9297 0 12.474 0 11.9531C0 11.4323 0.208333 10.9766 0.625 10.5859C1.04167 10.1953 1.61458 10 2.34375 10H9.60938C10.3385 10 10.9115 10.1953 11.3281 10.5859C11.7448 10.9766 11.9531 11.4323 11.9531 11.9531C11.9531 12.474 11.7448 12.9297 11.3281 13.3203C10.9115 13.7109 10.3385 13.9062 9.60938 13.9062H2.34375ZM22.3438 13.9062C21.6146 13.9062 21.0417 13.7109 20.625 13.3203C20.2083 12.9297 20 12.474 20 11.9531C20 11.4323 20.2083 10.9766 20.625 10.5859C21.0417 10.1953 21.6146 10 22.3438 10H29.6094C30.3385 10 30.9115 10.1953 31.3281 10.5859C31.7448 10.9766 31.9531 11.4323 31.9531 11.9531C31.9531 12.474 31.7448 12.9297 31.3281 13.3203C30.9115 13.7109 30.3385 13.9062 29.6094 13.9062H22.3438ZM2.34375 8.90625C1.61458 8.90625 1.04167 8.71094 0.625 8.32031C0.208333 7.92969 0 7.47396 0 6.95312C0 6.43229 0.208333 5.97656 0.625 5.58594C1.04167 5.19531 1.61458 5 2.34375 5H24.6094C25.3385 5 25.9115 5.19531 26.3281 5.58594C26.7448 5.97656 26.9531 6.43229 26.9531 6.95312C26.9531 7.47396 26.7448 7.92969 26.3281 8.32031C25.9115 8.71094 25.3385 8.90625 24.6094 8.90625H2.34375ZM47.3438 28.9062C46.6146 28.9062 46.0417 28.7109 45.625 28.3203C45.2083 27.9297 45 27.474 45 26.9531C45 26.4323 45.2083 25.9766 45.625 25.5859C46.0417 25.1953 46.6146 25 47.3438 25H64.6094C65.3385 25 65.9115 25.1953 66.3281 25.5859C66.7448 25.9766 66.9531 26.4323 66.9531 26.9531C66.9531 27.474 66.7448 27.9297 66.3281 28.3203C65.9115 28.7109 65.3385 28.9062 64.6094 28.9062H47.3438ZM42.3438 23.9062C41.6146 23.9062 41.0417 23.7109 40.625 23.3203C40.2083 22.9297 40 22.474 40 21.9531C40 21.4323 40.2083 20.9766 40.625 20.5859C41.0417 20.1953 41.6146 20 42.3438 20H49.6094C50.3385 20 50.9115 20.1953 51.3281 20.5859C51.7448 20.9766 51.9531 21.4323 51.9531 21.9531C51.9531 22.474 51.7448 22.9297 51.3281 23.3203C50.9115 23.7109 50.3385 23.9062 49.6094 23.9062H42.3438ZM62.3438 23.9062C61.6146 23.9062 61.0417 23.7109 60.625 23.3203C60.2083 22.9297 60 22.474 60 21.9531C60 21.4323 60.2083 20.9766 60.625 20.5859C61.0417 20.1953 61.6146 20 62.3438 20H69.6094C70.3385 20 70.9115 20.1953 71.3281 20.5859C71.7448 20.9766 71.9531 21.4323 71.9531 21.9531C71.9531 22.474 71.7448 22.9297 71.3281 23.3203C70.9115 23.7109 70.3385 23.9062 69.6094 23.9062H62.3438ZM42.3438 18.9062C41.6146 18.9062 41.0417 18.7109 40.625 18.3203C40.2083 17.9297 40 17.474 40 16.9531C40 16.4323 40.2083 15.9766 40.625 15.5859C41.0417 15.1953 41.6146 15 42.3438 15H49.6094C50.3385 15 50.9115 15.1953 51.3281 15.5859C51.7448 15.9766 51.9531 16.4323 51.9531 16.9531C51.9531 17.474 51.7448 17.9297 51.3281 18.3203C50.9115 18.7109 50.3385 18.9062 49.6094 18.9062H42.3438ZM62.3438 18.9062C61.6146 18.9062 61.0417 18.7109 60.625 18.3203C60.2083 17.9297 60 17.474 60 16.9531C60 16.4323 60.2083 15.9766 60.625 15.5859C61.0417 15.1953 61.6146 15 62.3438 15H69.6094C70.3385 15 70.9115 15.1953 71.3281 15.5859C71.7448 15.9766 71.9531 16.4323 71.9531 16.9531C71.9531 17.474 71.7448 17.9297 71.3281 18.3203C70.9115 18.7109 70.3385 18.9062 69.6094 18.9062H62.3438ZM42.3438 13.9062C41.6146 13.9062 41.0417 13.7109 40.625 13.3203C40.2083 12.9297 40 12.474 40 11.9531C40 11.4323 40.2083 10.9766 40.625 10.5859C41.0417 10.1953 41.6146 10 42.3438 10H49.6094C50.3385 10 50.9115 10.1953 51.3281 10.5859C51.7448 10.9766 51.9531 11.4323 51.9531 11.9531C51.9531 12.474 51.7448 12.9297 51.3281 13.3203C50.9115 13.7109 50.3385 13.9062 49.6094 13.9062H42.3438ZM62.3438 13.9062C61.6146 13.9062 61.0417 13.7109 60.625 13.3203C60.2083 12.9297 60 12.474 60 11.9531C60 11.4323 60.2083 10.9766 60.625 10.5859C61.0417 10.1953 61.6146 10 62.3438 10H69.6094C70.3385 10 70.9115 10.1953 71.3281 10.5859C71.7448 10.9766 71.9531 11.4323 71.9531 11.9531C71.9531 12.474 71.7448 12.9297 71.3281 13.3203C70.9115 13.7109 70.3385 13.9062 69.6094 13.9062H62.3438ZM47.3438 8.90625C46.6146 8.90625 46.0417 8.71094 45.625 8.32031C45.2083 7.92969 45 7.47396 45 6.95312C45 6.43229 45.2083 5.97656 45.625 5.58594C46.0417 5.19531 46.6146 5 47.3438 5H64.6094C65.3385 5 65.9115 5.19531 66.3281 5.58594C66.7448 5.97656 66.9531 6.43229 66.9531 6.95312C66.9531 7.47396 66.7448 7.92969 66.3281 8.32031C65.9115 8.71094 65.3385 8.90625 64.6094 8.90625H47.3438ZM87.3438 28.9062C86.6146 28.9062 86.0417 28.7109 85.625 28.3203C85.2083 27.9297 85 27.474 85 26.9531C85 26.4323 85.2083 25.9766 85.625 25.5859C86.0417 25.1953 86.6146 25 87.3438 25H104.609C105.339 25 105.911 25.1953 106.328 25.5859C106.745 25.9766 106.953 26.4323 106.953 26.9531C106.953 27.474 106.745 27.9297 106.328 28.3203C105.911 28.7109 105.339 28.9062 104.609 28.9062H87.3438ZM92.3438 23.9062C91.6146 23.9062 91.0417 23.7109 90.625 23.3203C90.2083 22.9297 90 22.474 90 21.9531C90 21.4323 90.2083 20.9766 90.625 20.5859C91.0417 20.1953 91.6146 20 92.3438 20H99.6094C100.339 20 100.911 20.1953 101.328 20.5859C101.745 20.9766 101.953 21.4323 101.953 21.9531C101.953 22.474 101.745 22.9297 101.328 23.3203C100.911 23.7109 100.339 23.9062 99.6094 23.9062H92.3438ZM92.3438 18.9062C91.6146 18.9062 91.0417 18.7109 90.625 18.3203C90.2083 17.9297 90 17.474 90 16.9531C90 16.4323 90.2083 15.9766 90.625 15.5859C91.0417 15.1953 91.6146 15 92.3438 15H99.6094C100.339 15 100.911 15.1953 101.328 15.5859C101.745 15.9766 101.953 16.4323 101.953 16.9531C101.953 17.474 101.745 17.9297 101.328 18.3203C100.911 18.7109 100.339 18.9062 99.6094 18.9062H92.3438ZM92.3438 13.9062C91.6146 13.9062 91.0417 13.7109 90.625 13.3203C90.2083 12.9297 90 12.474 90 11.9531C90 11.4323 90.2083 10.9766 90.625 10.5859C91.0417 10.1953 91.6146 10 92.3438 10H99.6094C100.339 10 100.911 10.1953 101.328 10.5859C101.745 10.9766 101.953 11.4323 101.953 11.9531C101.953 12.474 101.745 12.9297 101.328 13.3203C100.911 13.7109 100.339 13.9062 99.6094 13.9062H92.3438ZM92.3438 8.90625C91.6146 8.90625 91.0417 8.71094 90.625 8.32031C90.2083 7.92969 90 7.47396 90 6.95312C90 6.43229 90.2083 5.97656 90.625 5.58594C91.0417 5.19531 91.6146 5 92.3438 5H99.6094C100.339 5 100.911 5.19531 101.328 5.58594C101.745 5.97656 101.953 6.43229 101.953 6.95312C101.953 7.47396 101.745 7.92969 101.328 8.32031C100.911 8.71094 100.339 8.90625 99.6094 8.90625H92.3438ZM87.3438 3.90625C86.6146 3.90625 86.0417 3.71094 85.625 3.32031C85.2083 2.92969 85 2.47396 85 1.95312C85 1.43229 85.2083 0.976562 85.625 0.585938C86.0417 0.195312 86.6146 0 87.3438 0H99.6094C100.339 0 100.911 0.195312 101.328 0.585938C101.745 0.976562 101.953 1.43229 101.953 1.95312C101.953 2.47396 101.745 2.92969 101.328 3.32031C100.911 3.71094 100.339 3.90625 99.6094 3.90625H87.3438ZM127.344 28.9062C126.615 28.9062 126.042 28.7109 125.625 28.3203C125.208 27.9297 125 27.474 125 26.9531C125 26.4323 125.208 25.9766 125.625 25.5859C126.042 25.1953 126.615 25 127.344 25H144.609C145.339 25 145.911 25.1953 146.328 25.5859C146.745 25.9766 146.953 26.4323 146.953 26.9531C146.953 27.474 146.745 27.9297 146.328 28.3203C145.911 28.7109 145.339 28.9062 144.609 28.9062H127.344ZM132.344 23.9062C131.615 23.9062 131.042 23.7109 130.625 23.3203C130.208 22.9297 130 22.474 130 21.9531C130 21.4323 130.208 20.9766 130.625 20.5859C131.042 20.1953 131.615 20 132.344 20H139.609C140.339 20 140.911 20.1953 141.328 20.5859C141.745 20.9766 141.953 21.4323 141.953 21.9531C141.953 22.474 141.745 22.9297 141.328 23.3203C140.911 23.7109 140.339 23.9062 139.609 23.9062H132.344ZM132.344 18.9062C131.615 18.9062 131.042 18.7109 130.625 18.3203C130.208 17.9297 130 17.474 130 16.9531C130 16.4323 130.208 15.9766 130.625 15.5859C131.042 15.1953 131.615 15 132.344 15H139.609C140.339 15 140.911 15.1953 141.328 15.5859C141.745 15.9766 141.953 16.4323 141.953 16.9531C141.953 17.474 141.745 17.9297 141.328 18.3203C140.911 18.7109 140.339 18.9062 139.609 18.9062H132.344ZM127.344 13.9062C126.615 13.9062 126.042 13.7109 125.625 13.3203C125.208 12.9297 125 12.474 125 11.9531C125 11.4323 125.208 10.9766 125.625 10.5859C126.042 10.1953 126.615 10 127.344 10H139.609C140.339 10 140.911 10.1953 141.328 10.5859C141.745 10.9766 141.953 11.4323 141.953 11.9531C141.953 12.474 141.745 12.9297 141.328 13.3203C140.911 13.7109 140.339 13.9062 139.609 13.9062H127.344ZM132.344 3.90625C131.615 3.90625 131.042 3.71094 130.625 3.32031C130.208 2.92969 130 2.47396 130 1.95312C130 1.43229 130.208 0.976562 130.625 0.585938C131.042 0.195312 131.615 0 132.344 0H139.609C140.339 0 140.911 0.195312 141.328 0.585938C141.745 0.976562 141.953 1.43229 141.953 1.95312C141.953 2.47396 141.745 2.92969 141.328 3.32031C140.911 3.71094 140.339 3.90625 139.609 3.90625H132.344ZM167.344 28.9062C166.615 28.9062 166.042 28.7109 165.625 28.3203C165.208 27.9297 165 27.474 165 26.9531C165 26.4323 165.208 25.9766 165.625 25.5859C166.042 25.1953 166.615 25 167.344 25H184.609C185.339 25 185.911 25.1953 186.328 25.5859C186.745 25.9766 186.953 26.4323 186.953 26.9531C186.953 27.474 186.745 27.9297 186.328 28.3203C185.911 28.7109 185.339 28.9062 184.609 28.9062H167.344ZM162.344 23.9062C161.615 23.9062 161.042 23.7109 160.625 23.3203C160.208 22.9297 160 22.474 160 21.9531C160 21.4323 160.208 20.9766 160.625 20.5859C161.042 20.1953 161.615 20 162.344 20H169.609C170.339 20 170.911 20.1953 171.328 20.5859C171.745 20.9766 171.953 21.4323 171.953 21.9531C171.953 22.474 171.745 22.9297 171.328 23.3203C170.911 23.7109 170.339 23.9062 169.609 23.9062H162.344ZM162.344 18.9062C161.615 18.9062 161.042 18.7109 160.625 18.3203C160.208 17.9297 160 17.474 160 16.9531C160 16.4323 160.208 15.9766 160.625 15.5859C161.042 15.1953 161.615 15 162.344 15H169.609C170.339 15 170.911 15.1953 171.328 15.5859C171.745 15.9766 171.953 16.4323 171.953 16.9531C171.953 17.474 171.745 17.9297 171.328 18.3203C170.911 18.7109 170.339 18.9062 169.609 18.9062H162.344ZM162.344 13.9062C161.615 13.9062 161.042 13.7109 160.625 13.3203C160.208 12.9297 160 12.474 160 11.9531C160 11.4323 160.208 10.9766 160.625 10.5859C161.042 10.1953 161.615 10 162.344 10H169.609C170.339 10 170.911 10.1953 171.328 10.5859C171.745 10.9766 171.953 11.4323 171.953 11.9531C171.953 12.474 171.745 12.9297 171.328 13.3203C170.911 13.7109 170.339 13.9062 169.609 13.9062H162.344ZM167.344 8.90625C166.615 8.90625 166.042 8.71094 165.625 8.32031C165.208 7.92969 165 7.47396 165 6.95312C165 6.43229 165.208 5.97656 165.625 5.58594C166.042 5.19531 166.615 5 167.344 5H184.609C185.339 5 185.911 5.19531 186.328 5.58594C186.745 5.97656 186.953 6.43229 186.953 6.95312C186.953 7.47396 186.745 7.92969 186.328 8.32031C185.911 8.71094 185.339 8.90625 184.609 8.90625H167.344ZM202.344 33.9062C201.615 33.9062 201.042 33.7109 200.625 33.3203C200.208 32.9297 200 32.474 200 31.9531C200 31.4323 200.208 30.9766 200.625 30.5859C201.042 30.1953 201.615 30 202.344 30H224.609C225.339 30 225.911 30.1953 226.328 30.5859C226.745 30.9766 226.953 31.4323 226.953 31.9531C226.953 32.474 226.745 32.9297 226.328 33.3203C225.911 33.7109 225.339 33.9062 224.609 33.9062H202.344ZM222.344 28.9062C221.615 28.9062 221.042 28.7109 220.625 28.3203C220.208 27.9297 220 27.474 220 26.9531C220 26.4323 220.208 25.9766 220.625 25.5859C221.042 25.1953 221.615 25 222.344 25H229.609C230.339 25 230.911 25.1953 231.328 25.5859C231.745 25.9766 231.953 26.4323 231.953 26.9531C231.953 27.474 231.745 27.9297 231.328 28.3203C230.911 28.7109 230.339 28.9062 229.609 28.9062H222.344ZM207.344 23.9062C206.615 23.9062 206.042 23.7109 205.625 23.3203C205.208 22.9297 205 22.474 205 21.9531C205 21.4323 205.208 20.9766 205.625 20.5859C206.042 20.1953 206.615 20 207.344 20H229.609C230.339 20 230.911 20.1953 231.328 20.5859C231.745 20.9766 231.953 21.4323 231.953 21.9531C231.953 22.474 231.745 22.9297 231.328 23.3203C230.911 23.7109 230.339 23.9062 229.609 23.9062H207.344ZM202.344 18.9062C201.615 18.9062 201.042 18.7109 200.625 18.3203C200.208 17.9297 200 17.474 200 16.9531C200 16.4323 200.208 15.9766 200.625 15.5859C201.042 15.1953 201.615 15 202.344 15H209.609C210.339 15 210.911 15.1953 211.328 15.5859C211.745 15.9766 211.953 16.4323 211.953 16.9531C211.953 17.474 211.745 17.9297 211.328 18.3203C210.911 18.7109 210.339 18.9062 209.609 18.9062H202.344ZM222.344 18.9062C221.615 18.9062 221.042 18.7109 220.625 18.3203C220.208 17.9297 220 17.474 220 16.9531C220 16.4323 220.208 15.9766 220.625 15.5859C221.042 15.1953 221.615 15 222.344 15H229.609C230.339 15 230.911 15.1953 231.328 15.5859C231.745 15.9766 231.953 16.4323 231.953 16.9531C231.953 17.474 231.745 17.9297 231.328 18.3203C230.911 18.7109 230.339 18.9062 229.609 18.9062H222.344ZM202.344 13.9062C201.615 13.9062 201.042 13.7109 200.625 13.3203C200.208 12.9297 200 12.474 200 11.9531C200 11.4323 200.208 10.9766 200.625 10.5859C201.042 10.1953 201.615 10 202.344 10H209.609C210.339 10 210.911 10.1953 211.328 10.5859C211.745 10.9766 211.953 11.4323 211.953 11.9531C211.953 12.474 211.745 12.9297 211.328 13.3203C210.911 13.7109 210.339 13.9062 209.609 13.9062H202.344ZM222.344 13.9062C221.615 13.9062 221.042 13.7109 220.625 13.3203C220.208 12.9297 220 12.474 220 11.9531C220 11.4323 220.208 10.9766 220.625 10.5859C221.042 10.1953 221.615 10 222.344 10H229.609C230.339 10 230.911 10.1953 231.328 10.5859C231.745 10.9766 231.953 11.4323 231.953 11.9531C231.953 12.474 231.745 12.9297 231.328 13.3203C230.911 13.7109 230.339 13.9062 229.609 13.9062H222.344ZM202.344 8.90625C201.615 8.90625 201.042 8.71094 200.625 8.32031C200.208 7.92969 200 7.47396 200 6.95312C200 6.43229 200.208 5.97656 200.625 5.58594C201.042 5.19531 201.615 5 202.344 5H209.609C210.339 5 210.911 5.19531 211.328 5.58594C211.745 5.97656 211.953 6.43229 211.953 6.95312C211.953 7.47396 211.745 7.92969 211.328 8.32031C210.911 8.71094 210.339 8.90625 209.609 8.90625H202.344ZM222.344 8.90625C221.615 8.90625 221.042 8.71094 220.625 8.32031C220.208 7.92969 220 7.47396 220 6.95312C220 6.43229 220.208 5.97656 220.625 5.58594C221.042 5.19531 221.615 5 222.344 5H229.609C230.339 5 230.911 5.19531 231.328 5.58594C231.745 5.97656 231.953 6.43229 231.953 6.95312C231.953 7.47396 231.745 7.92969 231.328 8.32031C230.911 8.71094 230.339 8.90625 229.609 8.90625H222.344ZM282.344 33.9062C281.615 33.9062 281.042 33.7109 280.625 33.3203C280.208 32.9297 280 32.474 280 31.9531C280 31.4323 280.208 30.9766 280.625 30.5859C281.042 30.1953 281.615 30 282.344 30H304.609C305.339 30 305.911 30.1953 306.328 30.5859C306.745 30.9766 306.953 31.4323 306.953 31.9531C306.953 32.474 306.745 32.9297 306.328 33.3203C305.911 33.7109 305.339 33.9062 304.609 33.9062H282.344ZM302.344 28.9062C301.615 28.9062 301.042 28.7109 300.625 28.3203C300.208 27.9297 300 27.474 300 26.9531C300 26.4323 300.208 25.9766 300.625 25.5859C301.042 25.1953 301.615 25 302.344 25H309.609C310.339 25 310.911 25.1953 311.328 25.5859C311.745 25.9766 311.953 26.4323 311.953 26.9531C311.953 27.474 311.745 27.9297 311.328 28.3203C310.911 28.7109 310.339 28.9062 309.609 28.9062H302.344ZM287.344 23.9062C286.615 23.9062 286.042 23.7109 285.625 23.3203C285.208 22.9297 285 22.474 285 21.9531C285 21.4323 285.208 20.9766 285.625 20.5859C286.042 20.1953 286.615 20 287.344 20H309.609C310.339 20 310.911 20.1953 311.328 20.5859C311.745 20.9766 311.953 21.4323 311.953 21.9531C311.953 22.474 311.745 22.9297 311.328 23.3203C310.911 23.7109 310.339 23.9062 309.609 23.9062H287.344ZM282.344 18.9062C281.615 18.9062 281.042 18.7109 280.625 18.3203C280.208 17.9297 280 17.474 280 16.9531C280 16.4323 280.208 15.9766 280.625 15.5859C281.042 15.1953 281.615 15 282.344 15H289.609C290.339 15 290.911 15.1953 291.328 15.5859C291.745 15.9766 291.953 16.4323 291.953 16.9531C291.953 17.474 291.745 17.9297 291.328 18.3203C290.911 18.7109 290.339 18.9062 289.609 18.9062H282.344ZM302.344 18.9062C301.615 18.9062 301.042 18.7109 300.625 18.3203C300.208 17.9297 300 17.474 300 16.9531C300 16.4323 300.208 15.9766 300.625 15.5859C301.042 15.1953 301.615 15 302.344 15H309.609C310.339 15 310.911 15.1953 311.328 15.5859C311.745 15.9766 311.953 16.4323 311.953 16.9531C311.953 17.474 311.745 17.9297 311.328 18.3203C310.911 18.7109 310.339 18.9062 309.609 18.9062H302.344ZM282.344 13.9062C281.615 13.9062 281.042 13.7109 280.625 13.3203C280.208 12.9297 280 12.474 280 11.9531C280 11.4323 280.208 10.9766 280.625 10.5859C281.042 10.1953 281.615 10 282.344 10H289.609C290.339 10 290.911 10.1953 291.328 10.5859C291.745 10.9766 291.953 11.4323 291.953 11.9531C291.953 12.474 291.745 12.9297 291.328 13.3203C290.911 13.7109 290.339 13.9062 289.609 13.9062H282.344ZM302.344 13.9062C301.615 13.9062 301.042 13.7109 300.625 13.3203C300.208 12.9297 300 12.474 300 11.9531C300 11.4323 300.208 10.9766 300.625 10.5859C301.042 10.1953 301.615 10 302.344 10H309.609C310.339 10 310.911 10.1953 311.328 10.5859C311.745 10.9766 311.953 11.4323 311.953 11.9531C311.953 12.474 311.745 12.9297 311.328 13.3203C310.911 13.7109 310.339 13.9062 309.609 13.9062H302.344ZM287.344 8.90625C286.615 8.90625 286.042 8.71094 285.625 8.32031C285.208 7.92969 285 7.47396 285 6.95312C285 6.43229 285.208 5.97656 285.625 5.58594C286.042 5.19531 286.615 5 287.344 5H309.609C310.339 5 310.911 5.19531 311.328 5.58594C311.745 5.97656 311.953 6.43229 311.953 6.95312C311.953 7.47396 311.745 7.92969 311.328 8.32031C310.911 8.71094 310.339 8.90625 309.609 8.90625H287.344ZM322.344 28.9062C321.615 28.9062 321.042 28.7109 320.625 28.3203C320.208 27.9297 320 27.474 320 26.9531C320 26.4323 320.208 25.9766 320.625 25.5859C321.042 25.1953 321.615 25 322.344 25H329.609C330.339 25 330.911 25.1953 331.328 25.5859C331.745 25.9766 331.953 26.4323 331.953 26.9531C331.953 27.474 331.745 27.9297 331.328 28.3203C330.911 28.7109 330.339 28.9062 329.609 28.9062H322.344ZM322.344 23.9062C321.615 23.9062 321.042 23.7109 320.625 23.3203C320.208 22.9297 320 22.474 320 21.9531C320 21.4323 320.208 20.9766 320.625 20.5859C321.042 20.1953 321.615 20 322.344 20H329.609C330.339 20 330.911 20.1953 331.328 20.5859C331.745 20.9766 331.953 21.4323 331.953 21.9531C331.953 22.474 331.745 22.9297 331.328 23.3203C330.911 23.7109 330.339 23.9062 329.609 23.9062H322.344ZM322.344 18.9062C321.615 18.9062 321.042 18.7109 320.625 18.3203C320.208 17.9297 320 17.474 320 16.9531C320 16.4323 320.208 15.9766 320.625 15.5859C321.042 15.1953 321.615 15 322.344 15H329.609C330.339 15 330.911 15.1953 331.328 15.5859C331.745 15.9766 331.953 16.4323 331.953 16.9531C331.953 17.474 331.745 17.9297 331.328 18.3203C330.911 18.7109 330.339 18.9062 329.609 18.9062H322.344ZM322.344 13.9062C321.615 13.9062 321.042 13.7109 320.625 13.3203C320.208 12.9297 320 12.474 320 11.9531C320 11.4323 320.208 10.9766 320.625 10.5859C321.042 10.1953 321.615 10 322.344 10H329.609C330.339 10 330.911 10.1953 331.328 10.5859C331.745 10.9766 331.953 11.4323 331.953 11.9531C331.953 12.474 331.745 12.9297 331.328 13.3203C330.911 13.7109 330.339 13.9062 329.609 13.9062H322.344ZM342.344 13.9062C341.615 13.9062 341.042 13.7109 340.625 13.3203C340.208 12.9297 340 12.474 340 11.9531C340 11.4323 340.208 10.9766 340.625 10.5859C341.042 10.1953 341.615 10 342.344 10H349.609C350.339 10 350.911 10.1953 351.328 10.5859C351.745 10.9766 351.953 11.4323 351.953 11.9531C351.953 12.474 351.745 12.9297 351.328 13.3203C350.911 13.7109 350.339 13.9062 349.609 13.9062H342.344ZM322.344 8.90625C321.615 8.90625 321.042 8.71094 320.625 8.32031C320.208 7.92969 320 7.47396 320 6.95312C320 6.43229 320.208 5.97656 320.625 5.58594C321.042 5.19531 321.615 5 322.344 5H344.609C345.339 5 345.911 5.19531 346.328 5.58594C346.745 5.97656 346.953 6.43229 346.953 6.95312C346.953 7.47396 346.745 7.92969 346.328 8.32031C345.911 8.71094 345.339 8.90625 344.609 8.90625H322.344ZM367.344 28.9062C366.615 28.9062 366.042 28.7109 365.625 28.3203C365.208 27.9297 365 27.474 365 26.9531C365 26.4323 365.208 25.9766 365.625 25.5859C366.042 25.1953 366.615 25 367.344 25H389.609C390.339 25 390.911 25.1953 391.328 25.5859C391.745 25.9766 391.953 26.4323 391.953 26.9531C391.953 27.474 391.745 27.9297 391.328 28.3203C390.911 28.7109 390.339 28.9062 389.609 28.9062H367.344ZM362.344 23.9062C361.615 23.9062 361.042 23.7109 360.625 23.3203C360.208 22.9297 360 22.474 360 21.9531C360 21.4323 360.208 20.9766 360.625 20.5859C361.042 20.1953 361.615 20 362.344 20H369.609C370.339 20 370.911 20.1953 371.328 20.5859C371.745 20.9766 371.953 21.4323 371.953 21.9531C371.953 22.474 371.745 22.9297 371.328 23.3203C370.911 23.7109 370.339 23.9062 369.609 23.9062H362.344ZM382.344 23.9062C381.615 23.9062 381.042 23.7109 380.625 23.3203C380.208 22.9297 380 22.474 380 21.9531C380 21.4323 380.208 20.9766 380.625 20.5859C381.042 20.1953 381.615 20 382.344 20H389.609C390.339 20 390.911 20.1953 391.328 20.5859C391.745 20.9766 391.953 21.4323 391.953 21.9531C391.953 22.474 391.745 22.9297 391.328 23.3203C390.911 23.7109 390.339 23.9062 389.609 23.9062H382.344ZM367.344 18.9062C366.615 18.9062 366.042 18.7109 365.625 18.3203C365.208 17.9297 365 17.474 365 16.9531C365 16.4323 365.208 15.9766 365.625 15.5859C366.042 15.1953 366.615 15 367.344 15H389.609C390.339 15 390.911 15.1953 391.328 15.5859C391.745 15.9766 391.953 16.4323 391.953 16.9531C391.953 17.474 391.745 17.9297 391.328 18.3203C390.911 18.7109 390.339 18.9062 389.609 18.9062H367.344ZM382.344 13.9062C381.615 13.9062 381.042 13.7109 380.625 13.3203C380.208 12.9297 380 12.474 380 11.9531C380 11.4323 380.208 10.9766 380.625 10.5859C381.042 10.1953 381.615 10 382.344 10H389.609C390.339 10 390.911 10.1953 391.328 10.5859C391.745 10.9766 391.953 11.4323 391.953 11.9531C391.953 12.474 391.745 12.9297 391.328 13.3203C390.911 13.7109 390.339 13.9062 389.609 13.9062H382.344ZM367.344 8.90625C366.615 8.90625 366.042 8.71094 365.625 8.32031C365.208 7.92969 365 7.47396 365 6.95312C365 6.43229 365.208 5.97656 365.625 5.58594C366.042 5.19531 366.615 5 367.344 5H384.609C385.339 5 385.911 5.19531 386.328 5.58594C386.745 5.97656 386.953 6.43229 386.953 6.95312C386.953 7.47396 386.745 7.92969 386.328 8.32031C385.911 8.71094 385.339 8.90625 384.609 8.90625H367.344ZM407.344 28.9062C406.615 28.9062 406.042 28.7109 405.625 28.3203C405.208 27.9297 405 27.474 405 26.9531C405 26.4323 405.208 25.9766 405.625 25.5859C406.042 25.1953 406.615 25 407.344 25H429.609C430.339 25 430.911 25.1953 431.328 25.5859C431.745 25.9766 431.953 26.4323 431.953 26.9531C431.953 27.474 431.745 27.9297 431.328 28.3203C430.911 28.7109 430.339 28.9062 429.609 28.9062H407.344ZM402.344 23.9062C401.615 23.9062 401.042 23.7109 400.625 23.3203C400.208 22.9297 400 22.474 400 21.9531C400 21.4323 400.208 20.9766 400.625 20.5859C401.042 20.1953 401.615 20 402.344 20H409.609C410.339 20 410.911 20.1953 411.328 20.5859C411.745 20.9766 411.953 21.4323 411.953 21.9531C411.953 22.474 411.745 22.9297 411.328 23.3203C410.911 23.7109 410.339 23.9062 409.609 23.9062H402.344ZM422.344 23.9062C421.615 23.9062 421.042 23.7109 420.625 23.3203C420.208 22.9297 420 22.474 420 21.9531C420 21.4323 420.208 20.9766 420.625 20.5859C421.042 20.1953 421.615 20 422.344 20H429.609C430.339 20 430.911 20.1953 431.328 20.5859C431.745 20.9766 431.953 21.4323 431.953 21.9531C431.953 22.474 431.745 22.9297 431.328 23.3203C430.911 23.7109 430.339 23.9062 429.609 23.9062H422.344ZM402.344 18.9062C401.615 18.9062 401.042 18.7109 400.625 18.3203C400.208 17.9297 400 17.474 400 16.9531C400 16.4323 400.208 15.9766 400.625 15.5859C401.042 15.1953 401.615 15 402.344 15H409.609C410.339 15 410.911 15.1953 411.328 15.5859C411.745 15.9766 411.953 16.4323 411.953 16.9531C411.953 17.474 411.745 17.9297 411.328 18.3203C410.911 18.7109 410.339 18.9062 409.609 18.9062H402.344ZM422.344 18.9062C421.615 18.9062 421.042 18.7109 420.625 18.3203C420.208 17.9297 420 17.474 420 16.9531C420 16.4323 420.208 15.9766 420.625 15.5859C421.042 15.1953 421.615 15 422.344 15H429.609C430.339 15 430.911 15.1953 431.328 15.5859C431.745 15.9766 431.953 16.4323 431.953 16.9531C431.953 17.474 431.745 17.9297 431.328 18.3203C430.911 18.7109 430.339 18.9062 429.609 18.9062H422.344ZM407.344 13.9062C406.615 13.9062 406.042 13.7109 405.625 13.3203C405.208 12.9297 405 12.474 405 11.9531C405 11.4323 405.208 10.9766 405.625 10.5859C406.042 10.1953 406.615 10 407.344 10H429.609C430.339 10 430.911 10.1953 431.328 10.5859C431.745 10.9766 431.953 11.4323 431.953 11.9531C431.953 12.474 431.745 12.9297 431.328 13.3203C430.911 13.7109 430.339 13.9062 429.609 13.9062H407.344ZM422.344 8.90625C421.615 8.90625 421.042 8.71094 420.625 8.32031C420.208 7.92969 420 7.47396 420 6.95312C420 6.43229 420.208 5.97656 420.625 5.58594C421.042 5.19531 421.615 5 422.344 5H429.609C430.339 5 430.911 5.19531 431.328 5.58594C431.745 5.97656 431.953 6.43229 431.953 6.95312C431.953 7.47396 431.745 7.92969 431.328 8.32031C430.911 8.71094 430.339 8.90625 429.609 8.90625H422.344ZM422.344 3.90625C421.615 3.90625 421.042 3.71094 420.625 3.32031C420.208 2.92969 420 2.47396 420 1.95312C420 1.43229 420.208 0.976562 420.625 0.585938C421.042 0.195312 421.615 0 422.344 0H429.609C430.339 0 430.911 0.195312 431.328 0.585938C431.745 0.976562 431.953 1.43229 431.953 1.95312C431.953 2.47396 431.745 2.92969 431.328 3.32031C430.911 3.71094 430.339 3.90625 429.609 3.90625H422.344ZM447.344 28.9062C446.615 28.9062 446.042 28.7109 445.625 28.3203C445.208 27.9297 445 27.474 445 26.9531C445 26.4323 445.208 25.9766 445.625 25.5859C446.042 25.1953 446.615 25 447.344 25H464.609C465.339 25 465.911 25.1953 466.328 25.5859C466.745 25.9766 466.953 26.4323 466.953 26.9531C466.953 27.474 466.745 27.9297 466.328 28.3203C465.911 28.7109 465.339 28.9062 464.609 28.9062H447.344ZM452.344 23.9062C451.615 23.9062 451.042 23.7109 450.625 23.3203C450.208 22.9297 450 22.474 450 21.9531C450 21.4323 450.208 20.9766 450.625 20.5859C451.042 20.1953 451.615 20 452.344 20H459.609C460.339 20 460.911 20.1953 461.328 20.5859C461.745 20.9766 461.953 21.4323 461.953 21.9531C461.953 22.474 461.745 22.9297 461.328 23.3203C460.911 23.7109 460.339 23.9062 459.609 23.9062H452.344ZM452.344 18.9062C451.615 18.9062 451.042 18.7109 450.625 18.3203C450.208 17.9297 450 17.474 450 16.9531C450 16.4323 450.208 15.9766 450.625 15.5859C451.042 15.1953 451.615 15 452.344 15H459.609C460.339 15 460.911 15.1953 461.328 15.5859C461.745 15.9766 461.953 16.4323 461.953 16.9531C461.953 17.474 461.745 17.9297 461.328 18.3203C460.911 18.7109 460.339 18.9062 459.609 18.9062H452.344ZM447.344 13.9062C446.615 13.9062 446.042 13.7109 445.625 13.3203C445.208 12.9297 445 12.474 445 11.9531C445 11.4323 445.208 10.9766 445.625 10.5859C446.042 10.1953 446.615 10 447.344 10H459.609C460.339 10 460.911 10.1953 461.328 10.5859C461.745 10.9766 461.953 11.4323 461.953 11.9531C461.953 12.474 461.745 12.9297 461.328 13.3203C460.911 13.7109 460.339 13.9062 459.609 13.9062H447.344ZM452.344 3.90625C451.615 3.90625 451.042 3.71094 450.625 3.32031C450.208 2.92969 450 2.47396 450 1.95312C450 1.43229 450.208 0.976562 450.625 0.585938C451.042 0.195312 451.615 0 452.344 0H459.609C460.339 0 460.911 0.195312 461.328 0.585938C461.745 0.976562 461.953 1.43229 461.953 1.95312C461.953 2.47396 461.745 2.92969 461.328 3.32031C460.911 3.71094 460.339 3.90625 459.609 3.90625H452.344ZM487.344 28.9062C486.615 28.9062 486.042 28.7109 485.625 28.3203C485.208 27.9297 485 27.474 485 26.9531C485 26.4323 485.208 25.9766 485.625 25.5859C486.042 25.1953 486.615 25 487.344 25H504.609C505.339 25 505.911 25.1953 506.328 25.5859C506.745 25.9766 506.953 26.4323 506.953 26.9531C506.953 27.474 506.745 27.9297 506.328 28.3203C505.911 28.7109 505.339 28.9062 504.609 28.9062H487.344ZM482.344 23.9062C481.615 23.9062 481.042 23.7109 480.625 23.3203C480.208 22.9297 480 22.474 480 21.9531C480 21.4323 480.208 20.9766 480.625 20.5859C481.042 20.1953 481.615 20 482.344 20H489.609C490.339 20 490.911 20.1953 491.328 20.5859C491.745 20.9766 491.953 21.4323 491.953 21.9531C491.953 22.474 491.745 22.9297 491.328 23.3203C490.911 23.7109 490.339 23.9062 489.609 23.9062H482.344ZM482.344 18.9062C481.615 18.9062 481.042 18.7109 480.625 18.3203C480.208 17.9297 480 17.474 480 16.9531C480 16.4323 480.208 15.9766 480.625 15.5859C481.042 15.1953 481.615 15 482.344 15H509.609C510.339 15 510.911 15.1953 511.328 15.5859C511.745 15.9766 511.953 16.4323 511.953 16.9531C511.953 17.474 511.745 17.9297 511.328 18.3203C510.911 18.7109 510.339 18.9062 509.609 18.9062H482.344ZM482.344 13.9062C481.615 13.9062 481.042 13.7109 480.625 13.3203C480.208 12.9297 480 12.474 480 11.9531C480 11.4323 480.208 10.9766 480.625 10.5859C481.042 10.1953 481.615 10 482.344 10H489.609C490.339 10 490.911 10.1953 491.328 10.5859C491.745 10.9766 491.953 11.4323 491.953 11.9531C491.953 12.474 491.745 12.9297 491.328 13.3203C490.911 13.7109 490.339 13.9062 489.609 13.9062H482.344ZM502.344 13.9062C501.615 13.9062 501.042 13.7109 500.625 13.3203C500.208 12.9297 500 12.474 500 11.9531C500 11.4323 500.208 10.9766 500.625 10.5859C501.042 10.1953 501.615 10 502.344 10H509.609C510.339 10 510.911 10.1953 511.328 10.5859C511.745 10.9766 511.953 11.4323 511.953 11.9531C511.953 12.474 511.745 12.9297 511.328 13.3203C510.911 13.7109 510.339 13.9062 509.609 13.9062H502.344ZM487.344 8.90625C486.615 8.90625 486.042 8.71094 485.625 8.32031C485.208 7.92969 485 7.47396 485 6.95312C485 6.43229 485.208 5.97656 485.625 5.58594C486.042 5.19531 486.615 5 487.344 5H504.609C505.339 5 505.911 5.19531 506.328 5.58594C506.745 5.97656 506.953 6.43229 506.953 6.95312C506.953 7.47396 506.745 7.92969 506.328 8.32031C505.911 8.71094 505.339 8.90625 504.609 8.90625H487.344ZM522.344 28.9062C521.615 28.9062 521.042 28.7109 520.625 28.3203C520.208 27.9297 520 27.474 520 26.9531C520 26.4323 520.208 25.9766 520.625 25.5859C521.042 25.1953 521.615 25 522.344 25H529.609C530.339 25 530.911 25.1953 531.328 25.5859C531.745 25.9766 531.953 26.4323 531.953 26.9531C531.953 27.474 531.745 27.9297 531.328 28.3203C530.911 28.7109 530.339 28.9062 529.609 28.9062H522.344ZM542.344 28.9062C541.615 28.9062 541.042 28.7109 540.625 28.3203C540.208 27.9297 540 27.474 540 26.9531C540 26.4323 540.208 25.9766 540.625 25.5859C541.042 25.1953 541.615 25 542.344 25H549.609C550.339 25 550.911 25.1953 551.328 25.5859C551.745 25.9766 551.953 26.4323 551.953 26.9531C551.953 27.474 551.745 27.9297 551.328 28.3203C550.911 28.7109 550.339 28.9062 549.609 28.9062H542.344ZM522.344 23.9062C521.615 23.9062 521.042 23.7109 520.625 23.3203C520.208 22.9297 520 22.474 520 21.9531C520 21.4323 520.208 20.9766 520.625 20.5859C521.042 20.1953 521.615 20 522.344 20H529.609C530.339 20 530.911 20.1953 531.328 20.5859C531.745 20.9766 531.953 21.4323 531.953 21.9531C531.953 22.474 531.745 22.9297 531.328 23.3203C530.911 23.7109 530.339 23.9062 529.609 23.9062H522.344ZM542.344 23.9062C541.615 23.9062 541.042 23.7109 540.625 23.3203C540.208 22.9297 540 22.474 540 21.9531C540 21.4323 540.208 20.9766 540.625 20.5859C541.042 20.1953 541.615 20 542.344 20H549.609C550.339 20 550.911 20.1953 551.328 20.5859C551.745 20.9766 551.953 21.4323 551.953 21.9531C551.953 22.474 551.745 22.9297 551.328 23.3203C550.911 23.7109 550.339 23.9062 549.609 23.9062H542.344ZM522.344 18.9062C521.615 18.9062 521.042 18.7109 520.625 18.3203C520.208 17.9297 520 17.474 520 16.9531C520 16.4323 520.208 15.9766 520.625 15.5859C521.042 15.1953 521.615 15 522.344 15H529.609C530.339 15 530.911 15.1953 531.328 15.5859C531.745 15.9766 531.953 16.4323 531.953 16.9531C531.953 17.474 531.745 17.9297 531.328 18.3203C530.911 18.7109 530.339 18.9062 529.609 18.9062H522.344ZM542.344 18.9062C541.615 18.9062 541.042 18.7109 540.625 18.3203C540.208 17.9297 540 17.474 540 16.9531C540 16.4323 540.208 15.9766 540.625 15.5859C541.042 15.1953 541.615 15 542.344 15H549.609C550.339 15 550.911 15.1953 551.328 15.5859C551.745 15.9766 551.953 16.4323 551.953 16.9531C551.953 17.474 551.745 17.9297 551.328 18.3203C550.911 18.7109 550.339 18.9062 549.609 18.9062H542.344ZM522.344 13.9062C521.615 13.9062 521.042 13.7109 520.625 13.3203C520.208 12.9297 520 12.474 520 11.9531C520 11.4323 520.208 10.9766 520.625 10.5859C521.042 10.1953 521.615 10 522.344 10H529.609C530.339 10 530.911 10.1953 531.328 10.5859C531.745 10.9766 531.953 11.4323 531.953 11.9531C531.953 12.474 531.745 12.9297 531.328 13.3203C530.911 13.7109 530.339 13.9062 529.609 13.9062H522.344ZM542.344 13.9062C541.615 13.9062 541.042 13.7109 540.625 13.3203C540.208 12.9297 540 12.474 540 11.9531C540 11.4323 540.208 10.9766 540.625 10.5859C541.042 10.1953 541.615 10 542.344 10H549.609C550.339 10 550.911 10.1953 551.328 10.5859C551.745 10.9766 551.953 11.4323 551.953 11.9531C551.953 12.474 551.745 12.9297 551.328 13.3203C550.911 13.7109 550.339 13.9062 549.609 13.9062H542.344ZM522.344 8.90625C521.615 8.90625 521.042 8.71094 520.625 8.32031C520.208 7.92969 520 7.47396 520 6.95312C520 6.43229 520.208 5.97656 520.625 5.58594C521.042 5.19531 521.615 5 522.344 5H544.609C545.339 5 545.911 5.19531 546.328 5.58594C546.745 5.97656 546.953 6.43229 546.953 6.95312C546.953 7.47396 546.745 7.92969 546.328 8.32031C545.911 8.71094 545.339 8.90625 544.609 8.90625H522.344ZM577.344 28.9062C576.615 28.9062 576.042 28.7109 575.625 28.3203C575.208 27.9297 575 27.474 575 26.9531C575 26.4323 575.208 25.9766 575.625 25.5859C576.042 25.1953 576.615 25 577.344 25H589.609C590.339 25 590.911 25.1953 591.328 25.5859C591.745 25.9766 591.953 26.4323 591.953 26.9531C591.953 27.474 591.745 27.9297 591.328 28.3203C590.911 28.7109 590.339 28.9062 589.609 28.9062H577.344ZM572.344 23.9062C571.615 23.9062 571.042 23.7109 570.625 23.3203C570.208 22.9297 570 22.474 570 21.9531C570 21.4323 570.208 20.9766 570.625 20.5859C571.042 20.1953 571.615 20 572.344 20H579.609C580.339 20 580.911 20.1953 581.328 20.5859C581.745 20.9766 581.953 21.4323 581.953 21.9531C581.953 22.474 581.745 22.9297 581.328 23.3203C580.911 23.7109 580.339 23.9062 579.609 23.9062H572.344ZM572.344 18.9062C571.615 18.9062 571.042 18.7109 570.625 18.3203C570.208 17.9297 570 17.474 570 16.9531C570 16.4323 570.208 15.9766 570.625 15.5859C571.042 15.1953 571.615 15 572.344 15H579.609C580.339 15 580.911 15.1953 581.328 15.5859C581.745 15.9766 581.953 16.4323 581.953 16.9531C581.953 17.474 581.745 17.9297 581.328 18.3203C580.911 18.7109 580.339 18.9062 579.609 18.9062H572.344ZM572.344 13.9062C571.615 13.9062 571.042 13.7109 570.625 13.3203C570.208 12.9297 570 12.474 570 11.9531C570 11.4323 570.208 10.9766 570.625 10.5859C571.042 10.1953 571.615 10 572.344 10H579.609C580.339 10 580.911 10.1953 581.328 10.5859C581.745 10.9766 581.953 11.4323 581.953 11.9531C581.953 12.474 581.745 12.9297 581.328 13.3203C580.911 13.7109 580.339 13.9062 579.609 13.9062H572.344ZM562.344 8.90625C561.615 8.90625 561.042 8.71094 560.625 8.32031C560.208 7.92969 560 7.47396 560 6.95312C560 6.43229 560.208 5.97656 560.625 5.58594C561.042 5.19531 561.615 5 562.344 5H589.609C590.339 5 590.911 5.19531 591.328 5.58594C591.745 5.97656 591.953 6.43229 591.953 6.95312C591.953 7.47396 591.745 7.92969 591.328 8.32031C590.911 8.71094 590.339 8.90625 589.609 8.90625H562.344ZM572.344 3.90625C571.615 3.90625 571.042 3.71094 570.625 3.32031C570.208 2.92969 570 2.47396 570 1.95312C570 1.43229 570.208 0.976562 570.625 0.585938C571.042 0.195312 571.615 0 572.344 0H579.609C580.339 0 580.911 0.195312 581.328 0.585938C581.745 0.976562 581.953 1.43229 581.953 1.95312C581.953 2.47396 581.745 2.92969 581.328 3.32031C580.911 3.71094 580.339 3.90625 579.609 3.90625H572.344ZM602.344 28.9062C601.615 28.9062 601.042 28.7109 600.625 28.3203C600.208 27.9297 600 27.474 600 26.9531C600 26.4323 600.208 25.9766 600.625 25.5859C601.042 25.1953 601.615 25 602.344 25H624.609C625.339 25 625.911 25.1953 626.328 25.5859C626.745 25.9766 626.953 26.4323 626.953 26.9531C626.953 27.474 626.745 27.9297 626.328 28.3203C625.911 28.7109 625.339 28.9062 624.609 28.9062H602.344ZM622.344 23.9062C621.615 23.9062 621.042 23.7109 620.625 23.3203C620.208 22.9297 620 22.474 620 21.9531C620 21.4323 620.208 20.9766 620.625 20.5859C621.042 20.1953 621.615 20 622.344 20H629.609C630.339 20 630.911 20.1953 631.328 20.5859C631.745 20.9766 631.953 21.4323 631.953 21.9531C631.953 22.474 631.745 22.9297 631.328 23.3203C630.911 23.7109 630.339 23.9062 629.609 23.9062H622.344ZM607.344 18.9062C606.615 18.9062 606.042 18.7109 605.625 18.3203C605.208 17.9297 605 17.474 605 16.9531C605 16.4323 605.208 15.9766 605.625 15.5859C606.042 15.1953 606.615 15 607.344 15H624.609C625.339 15 625.911 15.1953 626.328 15.5859C626.745 15.9766 626.953 16.4323 626.953 16.9531C626.953 17.474 626.745 17.9297 626.328 18.3203C625.911 18.7109 625.339 18.9062 624.609 18.9062H607.344ZM602.344 13.9062C601.615 13.9062 601.042 13.7109 600.625 13.3203C600.208 12.9297 600 12.474 600 11.9531C600 11.4323 600.208 10.9766 600.625 10.5859C601.042 10.1953 601.615 10 602.344 10H609.609C610.339 10 610.911 10.1953 611.328 10.5859C611.745 10.9766 611.953 11.4323 611.953 11.9531C611.953 12.474 611.745 12.9297 611.328 13.3203C610.911 13.7109 610.339 13.9062 609.609 13.9062H602.344ZM607.344 8.90625C606.615 8.90625 606.042 8.71094 605.625 8.32031C605.208 7.92969 605 7.47396 605 6.95312C605 6.43229 605.208 5.97656 605.625 5.58594C606.042 5.19531 606.615 5 607.344 5H629.609C630.339 5 630.911 5.19531 631.328 5.58594C631.745 5.97656 631.953 6.43229 631.953 6.95312C631.953 7.47396 631.745 7.92969 631.328 8.32031C630.911 8.71094 630.339 8.90625 629.609 8.90625H607.344Z" fill="#BDBDBD"/>
</svg>
